<svg xmlns="http://www.w3.org/2000/svg" xmlns:xlink="http://www.w3.org/1999/xlink" width="500" zoomAndPan="magnify" viewBox="0 0 375 374.999991" height="500" preserveAspectRatio="xMidYMid meet" version="1.0"><defs><clipPath id="0e3b9346a3"><path d="M 8 39.613281 L 366 39.613281 L 366 335.113281 L 8 335.113281 Z M 8 39.613281 " clip-rule="nonzero"/></clipPath></defs><g clip-path="url(#0e3b9346a3)"><path fill="#3f76bf" d="M 313.503906 202.84375 C 313.503906 174.296875 304.441406 147.816406 289.09375 126.191406 C 283.171875 117.910156 284.097656 106.777344 291.308594 99.566406 L 292.734375 98.140625 C 297.875 93 304.652344 91.003906 311.792969 92.574219 C 313.648438 93 315.503906 93.144531 317.5 93.144531 C 332.277344 93.144531 344.265625 81.152344 344.265625 66.378906 C 344.265625 51.605469 332.277344 39.613281 317.5 39.613281 C 302.726562 39.613281 290.738281 51.605469 290.738281 66.378906 C 290.738281 68.308594 290.949219 70.234375 291.308594 72.089844 C 292.878906 79.15625 290.808594 86.007812 285.742188 91.144531 L 284.382812 92.503906 C 277.175781 99.710938 266.042969 100.636719 257.761719 94.714844 C 236.136719 79.296875 209.65625 70.304688 181.109375 70.304688 C 107.878906 70.304688 48.566406 129.6875 48.566406 202.84375 C 48.566406 276.074219 107.949219 335.382812 181.109375 335.382812 C 254.195312 335.382812 313.503906 276.074219 313.503906 202.84375 Z M 43.570312 291.203125 C 41.003906 281.710938 31.296875 276.074219 21.804688 278.644531 C 12.3125 281.210938 6.671875 290.917969 9.242188 300.410156 C 11.8125 309.902344 21.519531 315.542969 31.011719 312.972656 C 40.503906 310.402344 46.140625 300.695312 43.570312 291.203125 Z M 364.679688 273.148438 C 368.320312 286.636719 360.253906 300.554688 346.765625 304.195312 C 333.273438 307.835938 319.355469 299.769531 315.71875 286.28125 C 312.078125 272.789062 320.140625 258.871094 333.632812 255.234375 C 347.191406 251.59375 361.039062 259.585938 364.679688 273.148438 Z M 82.257812 71.304688 C 84.398438 79.226562 79.6875 87.363281 71.765625 89.503906 C 63.84375 91.644531 55.707031 86.933594 53.5625 79.011719 C 51.421875 71.089844 56.132812 62.953125 64.054688 60.8125 C 71.976562 58.671875 80.113281 63.382812 82.257812 71.304688 Z M 144.421875 274.21875 C 128.433594 266.082031 115.515625 252.804688 107.878906 236.53125 L 107.878906 202.628906 L 144.421875 202.628906 Z M 254.121094 182.71875 L 254.121094 236.53125 C 246.484375 252.804688 233.566406 266.082031 217.578125 274.21875 L 217.578125 162.875 L 254.195312 162.875 L 254.195312 182.71875 Z M 162.695312 182.71875 L 199.238281 182.71875 L 199.238281 280.855469 C 193.382812 282.210938 187.246094 282.925781 180.964844 282.925781 C 174.683594 282.925781 168.546875 282.210938 162.695312 280.855469 Z M 328.777344 66.378906 C 328.777344 72.660156 323.710938 77.726562 317.429688 77.726562 C 311.148438 77.726562 306.082031 72.660156 306.082031 66.378906 C 306.082031 60.097656 311.148438 55.03125 317.429688 55.03125 C 323.710938 55.03125 328.777344 60.097656 328.777344 66.378906 Z M 278.390625 202.84375 C 278.390625 256.660156 234.78125 300.269531 180.964844 300.269531 C 127.148438 300.269531 83.539062 256.660156 83.539062 202.84375 C 83.539062 149.03125 127.148438 105.421875 180.964844 105.421875 C 234.78125 105.421875 278.390625 149.03125 278.390625 202.84375 Z M 278.390625 202.84375 " fill-opacity="1" fill-rule="evenodd"/></g></svg>