<svg xmlns="http://www.w3.org/2000/svg" xmlns:xlink="http://www.w3.org/1999/xlink" width="500" zoomAndPan="magnify" viewBox="0 0 375 374.999991" height="500" preserveAspectRatio="xMidYMid meet" version="1.0"><defs><clipPath id="19f8abe904"><path d="M 39 65.0625 L 335 65.0625 L 335 310 L 39 310 Z M 39 65.0625 " clip-rule="nonzero"/></clipPath></defs><g clip-path="url(#19f8abe904)"><path fill="#ffffff" d="M 291.824219 200.203125 C 291.824219 176.566406 284.320312 154.644531 271.617188 136.742188 C 266.710938 129.886719 267.480469 120.667969 273.449219 114.699219 L 274.628906 113.515625 C 278.886719 109.261719 284.5 107.609375 290.40625 108.910156 C 291.945312 109.261719 293.480469 109.382812 295.136719 109.382812 C 307.367188 109.382812 317.292969 99.453125 317.292969 87.222656 C 317.292969 74.988281 307.367188 65.0625 295.136719 65.0625 C 282.902344 65.0625 272.976562 74.988281 272.976562 87.222656 C 272.976562 88.816406 273.152344 90.414062 273.449219 91.949219 C 274.75 97.800781 273.035156 103.472656 268.839844 107.726562 L 267.714844 108.847656 C 261.75 114.816406 252.53125 115.585938 245.675781 110.679688 C 227.769531 97.917969 205.847656 90.472656 182.210938 90.472656 C 121.582031 90.472656 72.476562 139.636719 72.476562 200.203125 C 72.476562 260.832031 121.644531 309.9375 182.210938 309.9375 C 242.722656 309.9375 291.824219 260.832031 291.824219 200.203125 Z M 68.34375 273.359375 C 66.214844 265.5 58.179688 260.832031 50.320312 262.960938 C 42.460938 265.085938 37.792969 273.125 39.917969 280.984375 C 42.046875 288.84375 50.082031 293.511719 57.941406 291.382812 C 65.800781 289.253906 70.46875 281.21875 68.34375 273.359375 Z M 334.195312 258.410156 C 337.207031 269.578125 330.53125 281.101562 319.363281 284.113281 C 308.195312 287.128906 296.671875 280.449219 293.65625 269.28125 C 290.644531 258.113281 297.320312 246.589844 308.488281 243.578125 C 319.71875 240.5625 331.179688 247.183594 334.195312 258.410156 Z M 100.371094 91.300781 C 102.140625 97.859375 98.242188 104.59375 91.683594 106.367188 C 85.125 108.140625 78.386719 104.238281 76.613281 97.679688 C 74.84375 91.121094 78.742188 84.386719 85.300781 82.613281 C 91.859375 80.839844 98.597656 84.738281 100.371094 91.300781 Z M 151.839844 259.296875 C 138.601562 252.558594 127.90625 241.570312 121.582031 228.097656 L 121.582031 200.027344 L 151.839844 200.027344 Z M 242.660156 183.539062 L 242.660156 228.097656 C 236.339844 241.570312 225.644531 252.558594 212.40625 259.296875 L 212.40625 167.113281 L 242.722656 167.113281 L 242.722656 183.539062 Z M 166.964844 183.539062 L 197.21875 183.539062 L 197.21875 264.792969 C 192.375 265.914062 187.292969 266.503906 182.09375 266.503906 C 176.894531 266.503906 171.8125 265.914062 166.964844 264.792969 Z M 304.472656 87.222656 C 304.472656 92.421875 300.277344 96.617188 295.074219 96.617188 C 289.875 96.617188 285.679688 92.421875 285.679688 87.222656 C 285.679688 82.023438 289.875 77.828125 295.074219 77.828125 C 300.277344 77.828125 304.472656 82.023438 304.472656 87.222656 Z M 262.753906 200.203125 C 262.753906 244.757812 226.648438 280.863281 182.09375 280.863281 C 137.539062 280.863281 101.433594 244.757812 101.433594 200.203125 C 101.433594 155.648438 137.539062 119.542969 182.09375 119.542969 C 226.648438 119.542969 262.753906 155.648438 262.753906 200.203125 Z M 262.753906 200.203125 " fill-opacity="1" fill-rule="evenodd"/></g></svg>