<svg xmlns="http://www.w3.org/2000/svg" xmlns:xlink="http://www.w3.org/1999/xlink" width="500" zoomAndPan="magnify" viewBox="0 0 375 374.999991" height="500" preserveAspectRatio="xMidYMid meet" version="1.0"><defs><g/><clipPath id="0c05f1ead6"><path d="M 94 67.492188 L 280 67.492188 L 280 220.492188 L 94 220.492188 Z M 94 67.492188 " clip-rule="nonzero"/></clipPath></defs><g fill="#ffffff" fill-opacity="1"><g transform="translate(76.228943, 288.762655)"><g><path d="M 18.546875 0.40625 C 15.535156 0.40625 12.832031 -0.0820312 10.4375 -1.0625 C 8.050781 -2.039062 6.144531 -3.488281 4.71875 -5.40625 C 3.289062 -7.320312 2.539062 -9.628906 2.46875 -12.328125 L 13.140625 -12.328125 C 13.296875 -10.796875 13.820312 -9.628906 14.71875 -8.828125 C 15.625 -8.023438 16.800781 -7.625 18.25 -7.625 C 19.738281 -7.625 20.910156 -7.96875 21.765625 -8.65625 C 22.628906 -9.34375 23.0625 -10.289062 23.0625 -11.5 C 23.0625 -12.519531 22.71875 -13.363281 22.03125 -14.03125 C 21.351562 -14.695312 20.515625 -15.242188 19.515625 -15.671875 C 18.515625 -16.097656 17.097656 -16.585938 15.265625 -17.140625 C 12.597656 -17.960938 10.421875 -18.78125 8.734375 -19.59375 C 7.054688 -20.414062 5.609375 -21.628906 4.390625 -23.234375 C 3.179688 -24.835938 2.578125 -26.929688 2.578125 -29.515625 C 2.578125 -33.347656 3.96875 -36.347656 6.75 -38.515625 C 9.53125 -40.691406 13.148438 -41.78125 17.609375 -41.78125 C 22.140625 -41.78125 25.796875 -40.691406 28.578125 -38.515625 C 31.359375 -36.347656 32.847656 -33.332031 33.046875 -29.46875 L 22.1875 -29.46875 C 22.101562 -30.789062 21.609375 -31.832031 20.703125 -32.59375 C 19.804688 -33.363281 18.65625 -33.75 17.25 -33.75 C 16.039062 -33.75 15.0625 -33.425781 14.3125 -32.78125 C 13.570312 -32.132812 13.203125 -31.203125 13.203125 -29.984375 C 13.203125 -28.660156 13.828125 -27.625 15.078125 -26.875 C 16.328125 -26.132812 18.285156 -25.332031 20.953125 -24.46875 C 23.609375 -23.570312 25.769531 -22.710938 27.4375 -21.890625 C 29.101562 -21.066406 30.539062 -19.875 31.75 -18.3125 C 32.957031 -16.75 33.5625 -14.734375 33.5625 -12.265625 C 33.5625 -9.921875 32.960938 -7.789062 31.765625 -5.875 C 30.578125 -3.957031 28.847656 -2.429688 26.578125 -1.296875 C 24.316406 -0.160156 21.640625 0.40625 18.546875 0.40625 Z M 18.546875 0.40625 "/></g></g></g><g fill="#ffffff" fill-opacity="1"><g transform="translate(112.314466, 288.762655)"><g><path d="M 21.890625 -8.515625 L 21.890625 0 L 16.78125 0 C 13.144531 0 10.304688 -0.890625 8.265625 -2.671875 C 6.234375 -4.453125 5.21875 -7.359375 5.21875 -11.390625 L 5.21875 -24.40625 L 1.234375 -24.40625 L 1.234375 -32.75 L 5.21875 -32.75 L 5.21875 -40.734375 L 15.265625 -40.734375 L 15.265625 -32.75 L 21.828125 -32.75 L 21.828125 -24.40625 L 15.265625 -24.40625 L 15.265625 -11.265625 C 15.265625 -10.285156 15.5 -9.582031 15.96875 -9.15625 C 16.4375 -8.726562 17.21875 -8.515625 18.3125 -8.515625 Z M 21.890625 -8.515625 "/></g></g></g><g fill="#ffffff" fill-opacity="1"><g transform="translate(136.136789, 288.762655)"><g><path d="M 18.546875 0.46875 C 15.335938 0.46875 12.453125 -0.210938 9.890625 -1.578125 C 7.328125 -2.953125 5.3125 -4.910156 3.84375 -7.453125 C 2.375 -9.992188 1.640625 -12.96875 1.640625 -16.375 C 1.640625 -19.738281 2.382812 -22.703125 3.875 -25.265625 C 5.363281 -27.828125 7.394531 -29.789062 9.96875 -31.15625 C 12.550781 -32.53125 15.445312 -33.21875 18.65625 -33.21875 C 21.863281 -33.21875 24.757812 -32.53125 27.34375 -31.15625 C 29.925781 -29.789062 31.960938 -27.828125 33.453125 -25.265625 C 34.941406 -22.703125 35.6875 -19.738281 35.6875 -16.375 C 35.6875 -13.007812 34.929688 -10.046875 33.421875 -7.484375 C 31.910156 -4.921875 29.851562 -2.953125 27.25 -1.578125 C 24.65625 -0.210938 21.753906 0.46875 18.546875 0.46875 Z M 18.546875 -8.21875 C 20.460938 -8.21875 22.09375 -8.921875 23.4375 -10.328125 C 24.789062 -11.734375 25.46875 -13.75 25.46875 -16.375 C 25.46875 -19 24.8125 -21.015625 23.5 -22.421875 C 22.1875 -23.828125 20.570312 -24.53125 18.65625 -24.53125 C 16.707031 -24.53125 15.085938 -23.832031 13.796875 -22.4375 C 12.503906 -21.050781 11.859375 -19.03125 11.859375 -16.375 C 11.859375 -13.75 12.492188 -11.734375 13.765625 -10.328125 C 15.035156 -8.921875 16.628906 -8.21875 18.546875 -8.21875 Z M 18.546875 -8.21875 "/></g></g></g><g fill="#ffffff" fill-opacity="1"><g transform="translate(173.513183, 288.762655)"><g><path d="M 1.640625 -16.375 C 1.640625 -19.78125 2.332031 -22.753906 3.71875 -25.296875 C 5.113281 -27.835938 7.050781 -29.789062 9.53125 -31.15625 C 12.019531 -32.53125 14.867188 -33.21875 18.078125 -33.21875 C 22.179688 -33.21875 25.613281 -32.140625 28.375 -29.984375 C 31.132812 -27.835938 32.941406 -24.804688 33.796875 -20.890625 L 23.125 -20.890625 C 22.21875 -23.398438 20.476562 -24.65625 17.90625 -24.65625 C 16.0625 -24.65625 14.59375 -23.9375 13.5 -22.5 C 12.40625 -21.070312 11.859375 -19.03125 11.859375 -16.375 C 11.859375 -13.71875 12.40625 -11.671875 13.5 -10.234375 C 14.59375 -8.804688 16.0625 -8.09375 17.90625 -8.09375 C 20.476562 -8.09375 22.21875 -9.347656 23.125 -11.859375 L 33.796875 -11.859375 C 32.941406 -8.023438 31.125 -5.007812 28.34375 -2.8125 C 25.5625 -0.625 22.140625 0.46875 18.078125 0.46875 C 14.867188 0.46875 12.019531 -0.210938 9.53125 -1.578125 C 7.050781 -2.953125 5.113281 -4.910156 3.71875 -7.453125 C 2.332031 -9.992188 1.640625 -12.96875 1.640625 -16.375 Z M 1.640625 -16.375 "/></g></g></g><g fill="#ffffff" fill-opacity="1"><g transform="translate(209.011955, 288.762655)"><g><path d="M 23.65625 0 L 13.671875 -13.734375 L 13.671875 0 L 3.640625 0 L 3.640625 -43.421875 L 13.671875 -43.421875 L 13.671875 -19.421875 L 23.59375 -32.75 L 35.96875 -32.75 L 22.359375 -16.3125 L 36.09375 0 Z M 23.65625 0 "/></g></g></g><g fill="#ffffff" fill-opacity="1"><g transform="translate(245.273504, 288.762655)"><g><path d="M 8.6875 -36.15625 C 6.925781 -36.15625 5.488281 -36.671875 4.375 -37.703125 C 3.257812 -38.742188 2.703125 -40.023438 2.703125 -41.546875 C 2.703125 -43.109375 3.257812 -44.410156 4.375 -45.453125 C 5.488281 -46.492188 6.925781 -47.015625 8.6875 -47.015625 C 10.40625 -47.015625 11.820312 -46.492188 12.9375 -45.453125 C 14.050781 -44.410156 14.609375 -43.109375 14.609375 -41.546875 C 14.609375 -40.023438 14.050781 -38.742188 12.9375 -37.703125 C 11.820312 -36.671875 10.40625 -36.15625 8.6875 -36.15625 Z M 13.671875 -32.75 L 13.671875 0 L 3.640625 0 L 3.640625 -32.75 Z M 13.671875 -32.75 "/></g></g></g><g fill="#ffffff" fill-opacity="1"><g transform="translate(262.582818, 288.762655)"><g><path d="M 34.515625 -16.90625 C 34.515625 -15.96875 34.453125 -14.988281 34.328125 -13.96875 L 11.625 -13.96875 C 11.78125 -11.9375 12.429688 -10.378906 13.578125 -9.296875 C 14.734375 -8.222656 16.15625 -7.6875 17.84375 -7.6875 C 20.34375 -7.6875 22.082031 -8.742188 23.0625 -10.859375 L 33.75 -10.859375 C 33.195312 -8.703125 32.207031 -6.765625 30.78125 -5.046875 C 29.351562 -3.328125 27.5625 -1.976562 25.40625 -1 C 23.257812 -0.0195312 20.851562 0.46875 18.1875 0.46875 C 14.976562 0.46875 12.125 -0.210938 9.625 -1.578125 C 7.125 -2.953125 5.164062 -4.910156 3.75 -7.453125 C 2.34375 -9.992188 1.640625 -12.96875 1.640625 -16.375 C 1.640625 -19.78125 2.332031 -22.753906 3.71875 -25.296875 C 5.113281 -27.835938 7.0625 -29.789062 9.5625 -31.15625 C 12.070312 -32.53125 14.945312 -33.21875 18.1875 -33.21875 C 21.363281 -33.21875 24.179688 -32.550781 26.640625 -31.21875 C 29.109375 -29.882812 31.035156 -27.984375 32.421875 -25.515625 C 33.816406 -23.054688 34.515625 -20.1875 34.515625 -16.90625 Z M 24.234375 -19.546875 C 24.234375 -21.265625 23.644531 -22.628906 22.46875 -23.640625 C 21.300781 -24.660156 19.835938 -25.171875 18.078125 -25.171875 C 16.390625 -25.171875 14.96875 -24.679688 13.8125 -23.703125 C 12.664062 -22.734375 11.953125 -21.347656 11.671875 -19.546875 Z M 24.234375 -19.546875 "/></g></g></g><g clip-path="url(#0c05f1ead6)"><path fill="#ffffff" d="M 252.710938 151.96875 C 252.710938 137.195312 248.019531 123.492188 240.078125 112.300781 C 237.011719 108.015625 237.492188 102.25 241.222656 98.519531 L 241.960938 97.78125 C 244.621094 95.121094 248.132812 94.089844 251.824219 94.902344 C 252.785156 95.121094 253.746094 95.195312 254.78125 95.195312 C 262.425781 95.195312 268.632812 88.992188 268.632812 81.34375 C 268.632812 73.699219 262.425781 67.492188 254.78125 67.492188 C 247.132812 67.492188 240.929688 73.699219 240.929688 81.34375 C 240.929688 82.34375 241.039062 83.339844 241.222656 84.300781 C 242.035156 87.957031 240.964844 91.503906 238.34375 94.164062 L 237.640625 94.863281 C 233.910156 98.59375 228.148438 99.074219 223.863281 96.007812 C 212.671875 88.03125 198.964844 83.375 184.191406 83.375 C 146.292969 83.375 115.597656 114.109375 115.597656 151.96875 C 115.597656 189.867188 146.332031 220.5625 184.191406 220.5625 C 222.015625 220.5625 252.710938 189.867188 252.710938 151.96875 Z M 113.011719 197.699219 C 111.683594 192.785156 106.660156 189.867188 101.746094 191.199219 C 96.832031 192.527344 93.914062 197.550781 95.246094 202.464844 C 96.574219 207.375 101.597656 210.296875 106.511719 208.964844 C 111.425781 207.636719 114.34375 202.613281 113.011719 197.699219 Z M 279.195312 188.355469 C 281.078125 195.335938 276.90625 202.539062 269.925781 204.421875 C 262.941406 206.304688 255.738281 202.132812 253.855469 195.152344 C 251.972656 188.167969 256.144531 180.964844 263.128906 179.082031 C 270.144531 177.199219 277.3125 181.335938 279.195312 188.355469 Z M 133.03125 83.894531 C 134.140625 87.992188 131.703125 92.203125 127.601562 93.3125 C 123.503906 94.421875 119.292969 91.984375 118.183594 87.882812 C 117.074219 83.78125 119.511719 79.570312 123.613281 78.464844 C 127.714844 77.355469 131.925781 79.792969 133.03125 83.894531 Z M 165.207031 188.90625 C 156.929688 184.695312 150.246094 177.828125 146.292969 169.40625 L 146.292969 151.859375 L 165.207031 151.859375 Z M 221.980469 141.554688 L 221.980469 169.40625 C 218.027344 177.828125 211.339844 184.695312 203.066406 188.90625 L 203.066406 131.285156 L 222.015625 131.285156 L 222.015625 141.554688 Z M 174.660156 141.554688 L 193.574219 141.554688 L 193.574219 192.34375 C 190.542969 193.046875 187.367188 193.414062 184.117188 193.414062 C 180.867188 193.414062 177.691406 193.046875 174.660156 192.34375 Z M 260.617188 81.34375 C 260.617188 84.59375 257.992188 87.21875 254.742188 87.21875 C 251.492188 87.21875 248.871094 84.59375 248.871094 81.34375 C 248.871094 78.09375 251.492188 75.472656 254.742188 75.472656 C 257.992188 75.472656 260.617188 78.09375 260.617188 81.34375 Z M 234.539062 151.96875 C 234.539062 179.820312 211.96875 202.390625 184.117188 202.390625 C 156.265625 202.390625 133.699219 179.820312 133.699219 151.96875 C 133.699219 124.117188 156.265625 101.550781 184.117188 101.550781 C 211.96875 101.550781 234.539062 124.117188 234.539062 151.96875 Z M 234.539062 151.96875 " fill-opacity="1" fill-rule="evenodd"/></g></svg>