<svg xmlns="http://www.w3.org/2000/svg" xmlns:xlink="http://www.w3.org/1999/xlink" width="500" zoomAndPan="magnify" viewBox="0 0 375 374.999991" height="500" preserveAspectRatio="xMidYMid meet" version="1.0"><defs><clipPath id="7c41532618"><path d="M 187.5 0 C 83.945312 0 0 83.945312 0 187.5 C 0 291.054688 83.945312 375 187.5 375 C 291.054688 375 375 291.054688 375 187.5 C 375 83.945312 291.054688 0 187.5 0 Z M 187.5 0 " clip-rule="nonzero"/></clipPath><clipPath id="95a7905e44"><path d="M 53 76.398438 L 322 76.398438 L 322 298.398438 L 53 298.398438 Z M 53 76.398438 " clip-rule="nonzero"/></clipPath></defs><g clip-path="url(#7c41532618)"><rect x="-37.5" width="450" fill="#ffffff" y="-37.499999" height="449.999989" fill-opacity="1"/></g><g clip-path="url(#95a7905e44)"><path fill="#3f76bf" d="M 282.160156 199.027344 C 282.160156 177.578125 275.351562 157.683594 263.820312 141.4375 C 259.371094 135.21875 260.070312 126.855469 265.484375 121.4375 L 266.558594 120.367188 C 270.417969 116.503906 275.511719 115.003906 280.875 116.183594 C 282.265625 116.503906 283.660156 116.613281 285.164062 116.613281 C 296.261719 116.613281 305.269531 107.605469 305.269531 96.503906 C 305.269531 85.40625 296.261719 76.398438 285.164062 76.398438 C 274.0625 76.398438 265.054688 85.40625 265.054688 96.503906 C 265.054688 97.953125 265.214844 99.402344 265.484375 100.796875 C 266.664062 106.101562 265.109375 111.25 261.300781 115.113281 L 260.285156 116.128906 C 254.867188 121.546875 246.503906 122.242188 240.285156 117.792969 C 224.035156 106.210938 204.144531 99.453125 182.695312 99.453125 C 127.683594 99.453125 83.125 144.066406 83.125 199.027344 C 83.125 254.039062 127.734375 298.597656 182.695312 298.597656 C 237.601562 298.597656 282.160156 254.039062 282.160156 199.027344 Z M 79.371094 265.40625 C 77.441406 258.277344 70.148438 254.039062 63.015625 255.96875 C 55.886719 257.898438 51.648438 265.191406 53.582031 272.324219 C 55.511719 279.457031 62.800781 283.691406 69.933594 281.761719 C 77.066406 279.832031 81.300781 272.539062 79.371094 265.40625 Z M 320.605469 251.839844 C 323.339844 261.976562 317.28125 272.429688 307.148438 275.164062 C 297.011719 277.898438 286.558594 271.839844 283.824219 261.707031 C 281.085938 251.574219 287.148438 241.117188 297.28125 238.382812 C 307.46875 235.648438 317.871094 241.652344 320.605469 251.839844 Z M 108.433594 100.207031 C 110.042969 106.15625 106.503906 112.269531 100.550781 113.878906 C 94.597656 115.488281 88.488281 111.949219 86.878906 105.996094 C 85.269531 100.042969 88.808594 93.933594 94.761719 92.324219 C 100.710938 90.714844 106.824219 94.253906 108.433594 100.207031 Z M 155.136719 252.644531 C 143.125 246.53125 133.417969 236.558594 127.683594 224.335938 L 127.683594 198.863281 L 155.136719 198.863281 Z M 237.546875 183.90625 L 237.546875 224.335938 C 231.8125 236.558594 222.105469 246.53125 210.09375 252.644531 L 210.09375 169 L 237.601562 169 L 237.601562 183.90625 Z M 168.863281 183.90625 L 196.316406 183.90625 L 196.316406 257.632812 C 191.917969 258.652344 187.308594 259.1875 182.589844 259.1875 C 177.871094 259.1875 173.257812 258.652344 168.863281 257.632812 Z M 293.632812 96.503906 C 293.632812 101.222656 289.828125 105.03125 285.109375 105.03125 C 280.390625 105.03125 276.582031 101.222656 276.582031 96.503906 C 276.582031 91.785156 280.390625 87.980469 285.109375 87.980469 C 289.828125 87.980469 293.632812 91.785156 293.632812 96.503906 Z M 255.777344 199.027344 C 255.777344 239.453125 223.019531 272.214844 182.589844 272.214844 C 142.160156 272.214844 109.398438 239.453125 109.398438 199.027344 C 109.398438 158.597656 142.160156 125.835938 182.589844 125.835938 C 223.019531 125.835938 255.777344 158.597656 255.777344 199.027344 Z M 255.777344 199.027344 " fill-opacity="1" fill-rule="evenodd"/></g></svg>